<?xml version="1.0" standalone="no"?>
<!DOCTYPE svg PUBLIC "-//W3C//DTD SVG 20010904//EN"
 "http://www.w3.org/TR/2001/REC-SVG-20010904/DTD/svg10.dtd">
<svg version="1.0" xmlns="http://www.w3.org/2000/svg"
 width="800.000000pt" height="800.000000pt" viewBox="0 0 800.000000 800.000000"
 preserveAspectRatio="xMidYMid meet">

<g transform="translate(0.000000,800.000000) scale(0.100000,-0.100000)"
fill="#000000" stroke="none">
<path d="M2740 7324 c-235 -30 -488 -104 -831 -243 -183 -74 -181 -73 -435
-101 -340 -36 -570 -179 -689 -425 -47 -97 -65 -152 -92 -285 -16 -79 -17
-256 -21 -2355 -2 -1622 0 -2305 8 -2394 52 -570 362 -842 965 -845 184 -1
242 13 533 130 345 139 549 194 724 194 146 0 337 -49 693 -178 263 -95 547
-95 810 0 356 129 547 178 693 178 175 0 379 -55 724 -194 291 -117 349 -131
533 -130 195 1 341 26 475 81 268 111 412 305 477 646 17 87 18 230 18 2422 0
2467 2 2369 -46 2560 -85 346 -345 551 -753 595 -254 28 -252 27 -435 101
-295 120 -488 180 -716 226 -140 27 -425 25 -573 -5 -157 -32 -318 -79 -517
-153 l-170 -63 -115 0 -115 0 -154 57 c-350 131 -549 177 -791 182 -91 2 -181
1 -200 -1z m360 -679 c117 -26 262 -71 420 -130 l145 -54 3 -2475 c1 -1362 -1
-2476 -4 -2476 -3 0 -63 18 -132 40 -281 87 -426 113 -627 113 -290 -1 -568
-70 -987 -244 -92 -38 -184 -73 -204 -77 -47 -9 -202 4 -271 24 -40 11 -56 21
-68 43 -40 78 -40 85 -40 2436 0 2112 1 2265 17 2335 10 41 26 83 36 93 26 26
108 44 252 57 220 19 297 38 489 122 235 103 424 166 596 199 117 22 257 20
375 -6z m2149 10 c164 -27 379 -96 593 -191 201 -88 304 -115 515 -134 149
-13 228 -31 255 -57 10 -11 26 -52 36 -93 16 -70 17 -223 17 -2335 0 -2347 0
-2358 -40 -2435 -19 -36 -55 -49 -190 -64 -134 -16 -154 -12 -351 72 -263 112
-555 201 -769 233 -106 15 -341 15 -435 0 -121 -21 -276 -59 -412 -101 -69
-22 -129 -40 -132 -40 -3 0 -5 1114 -4 2476 l3 2476 145 54 c176 66 349 117
450 134 41 6 82 13 90 15 41 8 145 3 229 -10z"/>
</g>
</svg>
