<svg xmlns="http://www.w3.org/2000/svg" xmlns:xlink="http://www.w3.org/1999/xlink" version="1.1" width="256" height="256" viewBox="0 0 256 256" xml:space="preserve">

<defs>
</defs>
<g style="stroke: none; stroke-width: 0; stroke-dasharray: none; stroke-linecap: butt; stroke-linejoin: miter; stroke-miterlimit: 10; fill: none; fill-rule: nonzero; opacity: 1;" transform="translate(1.4065934065934016 1.4065934065934016) scale(2.81 2.81)" >
	<path d="M 62.1 89.1 H 27.9 C 12.516 89.1 0 76.584 0 61.2 V 28.8 C 0 13.416 12.516 0.9 27.9 0.9 h 34.2 C 77.484 0.9 90 13.416 90 28.8 v 32.4 C 90 76.584 77.484 89.1 62.1 89.1 z M 27.9 6.9 C 15.824 6.9 6 16.724 6 28.8 v 32.4 C 6 73.275 15.824 83.1 27.9 83.1 h 34.2 C 74.176 83.1 84 73.275 84 61.2 V 28.8 c 0 -12.076 -9.824 -21.9 -21.9 -21.9 H 27.9 z" style="stroke: none; stroke-width: 1; stroke-dasharray: none; stroke-linecap: butt; stroke-linejoin: miter; stroke-miterlimit: 10; fill: rgb(0,0,0); fill-rule: nonzero; opacity: 1;" transform=" matrix(1 0 0 1 0 0) " stroke-linecap="round" />
	<rect x="3" y="25.8" rx="0" ry="0" width="84" height="6" style="stroke: none; stroke-width: 1; stroke-dasharray: none; stroke-linecap: butt; stroke-linejoin: miter; stroke-miterlimit: 10; fill: rgb(0,0,0); fill-rule: nonzero; opacity: 1;" transform=" matrix(1 0 0 1 0 0) "/>
	<rect x="27.53" y="2.48" rx="0" ry="0" width="6" height="28.09" style="stroke: none; stroke-width: 1; stroke-dasharray: none; stroke-linecap: butt; stroke-linejoin: miter; stroke-miterlimit: 10; fill: rgb(0,0,0); fill-rule: nonzero; opacity: 1;" transform=" matrix(0.8738 -0.4862 0.4862 0.8738 -4.1846 16.927) "/>
	<rect x="56.08" y="2.1" rx="0" ry="0" width="6" height="28.5" style="stroke: none; stroke-width: 1; stroke-dasharray: none; stroke-linecap: butt; stroke-linejoin: miter; stroke-miterlimit: 10; fill: rgb(0,0,0); fill-rule: nonzero; opacity: 1;" transform=" matrix(0.8738 -0.4862 0.4862 0.8738 -0.4967 30.7855) "/>
	<path d="M 37.091 71.529 c -1.177 0 -2.352 -0.318 -3.41 -0.952 c -2.02 -1.211 -3.226 -3.34 -3.226 -5.694 V 45.817 c 0 -2.355 1.206 -4.483 3.226 -5.694 c 2.019 -1.21 4.465 -1.271 6.542 -0.161 l 17.835 9.533 c 2.165 1.157 3.51 3.4 3.51 5.855 c 0 2.454 -1.345 4.697 -3.51 5.854 l -17.835 9.532 C 39.234 71.267 38.162 71.529 37.091 71.529 z M 37.093 45.174 c -0.132 0 -0.245 0.045 -0.328 0.096 c -0.142 0.085 -0.311 0.249 -0.311 0.548 v 19.065 c 0 0.299 0.169 0.463 0.311 0.548 c 0.142 0.084 0.367 0.155 0.629 0.016 l 17.836 -9.532 c 0.224 -0.12 0.338 -0.31 0.338 -0.563 c 0 -0.255 -0.114 -0.444 -0.338 -0.564 l -17.835 -9.532 C 37.287 45.196 37.185 45.174 37.093 45.174 z" style="stroke: none; stroke-width: 1; stroke-dasharray: none; stroke-linecap: butt; stroke-linejoin: miter; stroke-miterlimit: 10; fill: rgb(0,0,0); fill-rule: nonzero; opacity: 1;" transform=" matrix(1 0 0 1 0 0) " stroke-linecap="round" />
</g>
</svg>