<?xml version="1.0" standalone="no"?>
<!DOCTYPE svg PUBLIC "-//W3C//DTD SVG 20010904//EN"
 "http://www.w3.org/TR/2001/REC-SVG-20010904/DTD/svg10.dtd">
<svg version="1.0" xmlns="http://www.w3.org/2000/svg"
 width="459.000000pt" height="430.000000pt" viewBox="0 0 459.000000 430.000000"
 preserveAspectRatio="xMidYMid meet">
<metadata>
Created by potrace 1.16, written by Peter Selinger 2001-2019
</metadata>
<g transform="translate(0.000000,430.000000) scale(0.100000,-0.100000)"
fill="#000000" stroke="none">
<path d="M1905 4282 c-22 -10 -75 -35 -117 -56 l-77 -38 -73 12 c-59 9 -89 8
-154 -3 -45 -8 -94 -22 -110 -31 -28 -15 -27 -15 46 -11 l75 5 -48 -13 c-47
-14 -131 -66 -181 -112 -48 -44 -110 -82 -256 -155 -80 -39 -165 -85 -189
-101 -24 -17 -45 -28 -47 -26 -2 2 0 25 5 50 4 26 5 47 1 47 -8 0 -60 -111
-60 -127 0 -5 -44 -39 -98 -75 l-99 -65 -22 68 c-31 96 -49 101 -28 9 3 -14 8
-41 12 -60 l5 -35 -32 50 c-24 37 -33 45 -36 32 -2 -10 2 -24 8 -32 6 -8 9
-19 5 -25 -3 -5 -2 -10 3 -10 5 0 12 -11 14 -24 4 -19 -6 -32 -54 -71 -32 -26
-57 -50 -54 -52 3 -3 31 7 62 21 32 15 61 23 66 18 4 -4 9 -26 11 -48 2 -23 6
-45 9 -50 3 -5 9 -45 13 -89 l7 -80 -94 100 c-51 55 -110 118 -130 140 -20 22
-39 37 -42 34 -3 -3 10 -28 30 -57 19 -29 32 -52 29 -52 -3 0 5 -11 16 -24 12
-13 22 -28 22 -33 1 -4 16 -24 34 -43 18 -19 36 -42 39 -52 3 -10 10 -18 15
-18 6 0 7 -4 4 -10 -3 -5 -2 -10 3 -10 5 0 22 -16 37 -36 26 -34 26 -36 9 -50
-11 -8 -44 -27 -74 -43 l-56 -29 -20 31 c-36 55 -146 188 -151 183 -3 -3 7
-30 21 -61 l25 -56 -85 66 c-134 105 -123 85 54 -97 l94 -97 -131 -65 c-72
-37 -131 -70 -131 -76 0 -5 10 -5 28 0 15 6 43 12 62 14 19 3 37 6 40 7 3 1
10 3 15 4 6 1 17 5 25 8 27 11 105 37 113 37 4 0 7 -13 7 -28 0 -21 -16 -43
-66 -92 -98 -98 -171 -190 -215 -275 -71 -138 -52 -129 135 62 l173 178 36
-32 c20 -18 55 -38 77 -44 22 -7 40 -17 40 -23 0 -6 -35 -19 -78 -29 -97 -24
-265 -77 -259 -83 6 -7 129 -6 162 1 l30 6 -39 -33 c-64 -55 -138 -130 -132
-135 3 -3 31 10 63 28 32 18 60 32 62 30 2 -1 7 2 10 7 3 6 13 12 20 14 8 2
22 9 31 16 9 7 48 31 86 52 66 36 71 37 81 20 11 -16 1 -24 -90 -76 -110 -62
-243 -159 -229 -168 5 -3 32 6 60 19 29 13 52 21 52 17 0 -4 4 -2 8 4 7 11
135 71 162 76 8 2 18 7 21 11 3 4 16 9 27 10 12 1 22 4 22 8 0 4 10 9 22 13
23 6 98 -37 98 -56 0 -5 7 -16 15 -24 21 -21 19 -115 -5 -239 -11 -55 -22
-113 -25 -130 -2 -16 -10 -52 -16 -80 -6 -27 -12 -97 -15 -154 -4 -111 -2
-116 50 -143 36 -19 91 -9 153 28 23 13 44 24 47 24 10 0 7 -96 -5 -149 -8
-40 -7 -55 5 -80 15 -27 93 -91 113 -91 4 0 6 -22 5 -49 -4 -48 -2 -51 52
-110 31 -33 56 -69 57 -78 0 -10 2 -61 3 -113 3 -125 0 -118 71 -196 35 -39
48 -46 110 -59 78 -17 285 -25 285 -11 0 4 34 6 75 4 78 -4 90 -10 128 -68 22
-35 30 -79 35 -205 4 -103 -14 -305 -27 -305 -3 0 -7 -10 -7 -22 -1 -13 -5
-50 -10 -82 -6 -51 -5 -61 11 -72 31 -23 160 -17 268 11 53 14 102 26 109 27
7 2 15 5 18 8 3 3 35 18 72 34 124 52 288 155 411 258 l28 23 -22 62 c-31 92
-86 170 -175 248 -181 160 -223 220 -234 335 l-6 65 -22 -47 c-23 -51 -40 -60
-59 -29 -7 10 -35 27 -64 36 -46 16 -62 16 -141 5 -124 -17 -190 -14 -243 9
-57 25 -127 97 -161 166 -21 43 -31 55 -50 55 -12 0 -25 4 -29 9 -3 5 -12 61
-20 124 -20 168 -84 310 -196 435 -91 102 -114 145 -114 217 1 100 31 142 288
413 103 108 151 166 163 197 16 42 15 46 -5 106 -11 35 -21 77 -21 94 0 45 42
117 147 255 113 147 124 167 130 244 6 67 20 86 63 86 25 0 27 4 38 77 24 152
98 337 170 422 35 42 58 37 68 -13 3 -20 10 -36 15 -36 5 0 9 4 9 9 0 15 123
142 175 181 28 20 71 47 95 60 76 38 77 40 13 67 -128 55 -136 56 -258 59 -66
1 -163 5 -215 8 -79 5 -102 3 -135 -12z m-1276 -757 c30 49 37 32 21 -52 -6
-32 -13 -70 -16 -84 -3 -14 -13 -55 -24 -90 -18 -62 -18 -63 -19 -24 -1 35
-31 188 -47 237 -3 11 4 22 23 32 l28 14 5 -36 5 -37 24 40z"/>
<path d="M3100 4293 c-75 -13 -216 -56 -297 -91 -51 -22 -93 -38 -93 -35 0 3
14 22 30 43 17 21 30 41 30 44 0 11 -147 -47 -244 -97 -114 -60 -215 -147
-275 -239 l-39 -60 -13 56 c-7 32 -15 59 -19 61 -12 7 -79 -91 -114 -166 -38
-83 -73 -205 -83 -289 -7 -67 -16 -80 -58 -80 -37 0 -45 -15 -45 -86 0 -50
-38 -116 -147 -254 -43 -55 -88 -118 -101 -141 -26 -50 -29 -120 -7 -172 24
-58 19 -108 -14 -154 -16 -22 -83 -96 -148 -164 -254 -265 -283 -307 -283
-403 0 -65 25 -115 104 -203 119 -133 190 -291 209 -462 12 -103 13 -106 37
-106 17 0 29 -9 39 -30 95 -187 175 -230 380 -201 96 13 116 13 158 1 27 -8
58 -24 70 -35 12 -11 24 -20 27 -20 3 0 21 31 41 69 20 38 45 77 54 85 17 15
17 12 -2 -41 -23 -71 -19 -143 14 -211 24 -49 70 -98 204 -219 89 -80 144
-157 176 -245 l22 -58 23 34 c42 61 111 209 139 296 19 59 29 116 33 183 2 54
8 95 12 90 10 -10 60 -151 58 -161 -1 -4 2 -14 5 -22 4 -8 11 -28 18 -45 l11
-30 35 40 c143 161 256 416 278 630 7 58 9 66 17 45 17 -45 50 -221 44 -236
-3 -8 -1 -14 3 -14 5 0 12 -22 16 -50 4 -27 11 -50 16 -50 12 0 114 124 164
200 86 131 162 313 181 430 4 22 8 40 10 40 2 0 23 -21 46 -46 78 -85 116
-104 221 -113 126 -10 137 -3 87 63 -73 96 -102 196 -102 344 0 136 34 275
106 434 45 101 58 172 54 293 -3 80 -10 126 -26 169 -23 63 -22 77 3 56 8 -7
15 -9 15 -6 0 4 14 -1 30 -11 17 -9 30 -21 30 -26 0 -4 4 -6 9 -2 5 3 16 -2
24 -10 9 -8 19 -15 23 -15 6 0 52 -35 129 -100 16 -14 61 -54 99 -90 l69 -65
-8 40 c-11 61 -82 250 -132 350 -69 138 -145 245 -243 343 l-89 90 47 13 c26
8 52 14 57 14 6 0 12 2 15 5 3 3 44 25 93 48 48 22 108 56 134 73 l46 32 -60
17 c-90 25 -188 86 -373 231 -267 210 -331 257 -410 298 -84 43 -176 75 -264
90 -57 11 -254 13 -306 4z m111 -502 c-10 -27 -15 -55 -11 -61 8 -13 110 -18
129 -6 6 4 16 4 23 0 7 -4 44 -8 83 -9 74 0 152 -29 205 -73 l25 -21 -57 -1
c-52 0 -57 -2 -50 -19 4 -10 21 -30 38 -44 54 -45 60 -74 35 -171 -12 -47 -25
-125 -28 -173 -6 -77 -10 -91 -33 -114 -15 -16 -43 -29 -68 -34 -33 -5 -39 -9
-29 -20 7 -7 15 -11 18 -9 12 7 122 -67 170 -114 60 -58 63 -75 13 -59 -52 16
-64 -4 -51 -78 5 -31 6 -77 2 -103 l-7 -47 -20 45 c-49 117 -77 158 -163 246
-98 100 -177 150 -322 205 -46 18 -83 37 -83 44 0 14 180 188 187 181 2 -2 15
6 29 19 53 49 111 36 116 -28 1 -15 5 -27 9 -27 3 0 7 -27 8 -59 0 -33 5 -69
9 -81 7 -20 12 -14 38 41 25 57 29 75 29 159 0 112 -13 151 -62 181 -77 48
-220 9 -395 -108 -40 -27 -79 -53 -85 -57 -12 -6 14 53 65 150 35 67 138 199
195 248 28 25 53 46 54 46 2 0 -5 -22 -16 -49z m-514 -66 c7 -19 -17 -135 -27
-135 -5 0 -6 -9 -3 -20 3 -11 1 -20 -4 -20 -5 0 -9 -9 -10 -20 -2 -28 -59
-141 -100 -198 -18 -26 -33 -50 -33 -54 0 -3 14 -9 30 -13 17 -4 30 -11 30
-17 0 -6 3 -8 6 -5 8 8 64 -24 64 -35 0 -4 6 -8 13 -8 7 0 33 -20 57 -45 24
-25 40 -45 36 -45 -5 0 0 -8 12 -18 11 -10 30 -38 43 -62 13 -25 26 -47 29
-50 8 -6 30 -46 30 -54 0 -3 -33 13 -73 34 -113 61 -207 65 -176 8 11 -21 6
-92 -14 -183 -12 -52 -11 -67 4 -116 16 -56 61 -132 93 -158 38 -32 49 -78 43
-177 -7 -95 -23 -174 -40 -185 -5 -3 -8 -9 -8 -13 3 -20 -3 -31 -41 -72 -63
-68 -167 -113 -263 -114 -42 0 -74 -13 -58 -23 24 -15 114 -29 178 -28 67 2
69 1 48 -14 -36 -25 -123 -61 -217 -90 -76 -23 -98 -37 -65 -41 5 -1 10 -2 12
-4 10 -9 147 -15 167 -7 17 6 80 15 80 11 0 -2 -14 -19 -30 -38 -39 -44 -103
-68 -273 -105 -75 -17 -177 -46 -225 -66 -48 -20 -104 -41 -125 -46 -75 -19
-220 23 -305 87 -18 14 -36 23 -40 19 -4 -3 5 -27 18 -53 21 -39 36 -53 90
-80 67 -33 207 -66 225 -52 6 4 27 11 49 14 21 4 64 19 95 33 86 39 160 63
175 57 8 -3 17 -1 21 5 3 6 19 11 35 11 l29 0 -30 -65 c-41 -91 -60 -167 -65
-260 -3 -44 -6 -88 -8 -97 -2 -10 0 -18 5 -18 5 0 9 -8 9 -19 0 -18 -3 -18
-57 5 -32 13 -69 24 -83 24 -46 1 -51 14 -14 40 68 46 120 148 131 258 l6 52
-69 -29 c-138 -59 -256 -78 -352 -56 -32 7 -33 6 -26 -20 l7 -28 -60 41 c-33
23 -79 62 -101 87 -65 74 -152 302 -138 360 4 15 34 53 66 84 33 32 66 74 75
94 20 49 20 103 -1 111 -9 3 -83 -8 -165 -26 -82 -17 -151 -29 -154 -27 -3 3
2 30 11 60 15 48 32 70 174 214 214 216 285 311 420 558 72 131 146 221 216
262 25 15 43 29 41 32 -12 11 -131 -29 -170 -59 -50 -37 -86 -87 -168 -225
-33 -57 -64 -103 -69 -103 -17 0 -11 87 9 141 24 62 71 125 191 254 108 116
172 209 197 289 10 30 21 56 26 56 10 0 28 -48 30 -80 1 -14 6 -28 11 -32 21
-14 146 171 146 217 0 8 4 15 10 15 8 0 27 -54 46 -132 3 -16 9 -28 13 -28 3
0 40 37 82 83 67 73 186 167 211 167 5 0 11 -7 15 -15z m398 -1265 c27 -85 25
-75 31 -196 5 -77 1 -111 -25 -220 -16 -71 -34 -163 -40 -204 -12 -84 -17
-287 -8 -310 7 -18 15 -80 10 -80 -14 0 -104 220 -124 305 -6 28 -15 53 -18
57 -6 7 -48 -33 -43 -40 1 -1 -14 -35 -34 -75 -20 -39 -48 -101 -61 -137 -13
-36 -27 -72 -30 -80 -7 -17 -12 -37 -17 -65 -21 -116 -27 -169 -27 -253 l-1
-97 -25 54 c-33 75 -63 204 -63 277 0 70 27 184 63 266 14 31 74 136 133 234
175 290 212 400 200 608 -3 67 -8 132 -11 146 -10 46 65 -113 90 -190z m195
115 c58 -30 146 -105 198 -171 28 -34 81 -136 85 -161 1 -10 6 -24 10 -30 5
-7 6 -17 2 -22 -3 -5 -1 -12 4 -16 11 -6 13 -163 3 -180 -4 -5 -7 -16 -9 -24
-1 -7 -7 -27 -14 -44 -13 -31 -13 -31 -34 56 -18 79 -35 111 -41 74 -4 -27
-77 -187 -90 -198 -12 -10 -14 10 -14 132 0 216 -40 373 -136 547 -19 34 -30
62 -24 62 6 0 33 -11 60 -25z"/>
<path d="M1988 2835 c-16 -9 -28 -20 -28 -24 0 -5 12 -12 28 -16 37 -9 62 -33
54 -53 -3 -10 -20 -39 -37 -67 -30 -47 -31 -53 -20 -94 13 -55 32 -64 40 -19
8 42 52 106 85 123 14 7 68 34 120 58 52 25 109 60 125 77 l30 32 -50 -9 c-59
-9 -119 -9 -235 0 -68 6 -90 5 -112 -8z"/>
<path d="M3808 1540 c-4 -8 -18 -55 -33 -105 -29 -96 -122 -289 -160 -329 -13
-14 -21 -27 -18 -30 3 -2 -4 -11 -16 -18 -12 -7 -21 -17 -21 -21 0 -10 -38
-53 -119 -136 l-54 -56 -30 77 c-16 43 -33 75 -37 73 -4 -3 -11 -17 -15 -32
-10 -42 -74 -172 -108 -223 -45 -65 -161 -184 -218 -222 -68 -46 -68 -55 -3
-63 84 -11 164 6 260 57 3 2 26 22 50 46 25 23 49 40 54 37 4 -3 10 0 12 7 3
7 15 13 29 14 13 1 31 4 39 6 8 3 38 10 65 17 232 53 447 300 462 533 4 57 3
78 -6 78 -7 0 -9 -4 -6 -10 3 -5 3 -10 -2 -10 -4 0 -14 -13 -21 -28 -6 -16
-37 -55 -68 -88 -51 -54 -55 -57 -49 -29 29 130 35 173 34 285 -1 126 -11 199
-21 170z"/>
</g>
</svg>
